<svg width="29" height="29" viewBox="0 0 29 29" fill="none" xmlns="http://www.w3.org/2000/svg">
<g clip-path="url(#clip0_329_437)">
<path fill-rule="evenodd" clip-rule="evenodd" d="M25.5635 13.7546L14.4957 24.1366L3.45183 13.7785C1.11648 11.409 1.11648 7.55371 3.45183 5.18424C4.57772 4.043 6.07548 3.41354 7.67048 3.41354H7.67219C9.26548 3.41354 10.7633 4.043 11.8874 5.18424L11.8891 5.18595C13.0184 6.33059 13.6428 7.85735 13.6428 9.48135H15.3487C15.3487 7.85735 15.9713 6.33059 17.1023 5.18424C18.2265 4.043 19.7242 3.41354 21.3192 3.41354H21.3209C22.9142 3.41354 24.4137 4.043 25.5379 5.18424C27.8732 7.55371 27.8732 11.409 25.5635 13.7546ZM26.7542 3.98671C25.3059 2.51624 23.3748 1.70764 21.3209 1.70764H21.3192C19.2637 1.70764 17.3343 2.51624 15.8877 3.985C15.3197 4.55988 14.8539 5.20812 14.4957 5.90924C14.1375 5.20811 13.6701 4.55988 13.1037 3.98671C11.6571 2.51624 9.72779 1.70764 7.67219 1.70764H7.67048C5.6166 1.70764 3.68555 2.51624 2.23555 3.98671C-0.749759 7.01805 -0.749759 11.9463 2.26114 14.9982L14.4957 26.4753L26.7542 14.9743C29.7395 11.9464 29.7395 7.01805 26.7542 3.98671Z" fill="#0A3641"/>
</g>
<defs>
<clipPath id="clip0_329_437">
<rect width="29" height="29" fill="white"/>
</clipPath>
</defs>
</svg>
