<svg width="23" height="29" viewBox="0 0 23 29" fill="none" xmlns="http://www.w3.org/2000/svg">
<path d="M20.9634 27.7131H1.94719C1.81577 27.7128 1.68584 27.6828 1.56562 27.6249C1.44539 27.567 1.33751 27.4825 1.24879 27.3767C1.16008 27.271 1.09248 27.1463 1.05027 27.0105C1.00806 26.8747 0.992166 26.7309 1.00359 26.5881L2.69484 8.02555C2.71899 7.77041 2.82866 7.53398 3.00281 7.36165C3.17696 7.18932 3.40332 7.09322 3.63844 7.0918H19.2722C19.5042 7.09103 19.7286 7.18257 19.9032 7.34927C20.0779 7.51597 20.1908 7.74641 20.2209 7.99743L21.9122 26.5599C21.9275 26.7054 21.9144 26.8528 21.8736 26.9924C21.8328 27.1319 21.7654 27.2604 21.6757 27.3694C21.586 27.4784 21.4762 27.5654 21.3534 27.6246C21.2306 27.6839 21.0977 27.714 20.9634 27.7131Z" stroke="#0A3641" stroke-width="2"/>
<path d="M6.43848 10V6.47312C6.43848 5.02156 6.96705 3.62945 7.90793 2.60304C8.84881 1.57663 10.1249 1 11.4555 1C12.7861 1 14.0622 1.57663 15.0031 2.60304C15.944 3.62945 16.4725 5.02156 16.4725 6.47312V10.0169" stroke="#0A3641" stroke-width="2"/>
<path d="M6.43848 11.125C7.00802 11.125 7.46973 10.6213 7.46973 10C7.46973 9.37868 7.00802 8.875 6.43848 8.875C5.86893 8.875 5.40723 9.37868 5.40723 10C5.40723 10.6213 5.86893 11.125 6.43848 11.125Z" stroke="#0A3641" stroke-width="2"/>
<path d="M16.4727 11.125C17.0422 11.125 17.5039 10.6213 17.5039 10C17.5039 9.37868 17.0422 8.875 16.4727 8.875C15.9031 8.875 15.4414 9.37868 15.4414 10C15.4414 10.6213 15.9031 11.125 16.4727 11.125Z" stroke="#0A3641" stroke-width="2"/>
</svg>
